{
  "accessors": [
    {
      "bufferView": 2,
      "componentType": 5126,
      "count": 13241,
      "max": [
        1.357918381690979,
        1.7134186029434204,
        1.000000238418579
      ],
      "min": [
        -1.6434279680252075,
        -1.71341872215271,
        -0.4276469945907593
      ],
      "type": "VEC3"
    },
    {
      "bufferView": 2,
      "byteOffset": 158892,
      "componentType": 5126,
      "count": 13241,
      "max": [
        0.9999980926513672,
        0.9999972581863403,
        1.0
      ],
      "min": [
        -0.9999980926513672,
        -0.9999972581863403,
        -1.0
      ],
      "type": "VEC3"
    },
    {
      "bufferView": 1,
      "componentType": 5126,
      "count": 13241,
      "max": [
        1.0,
        1.0
      ],
      "min": [
        0.0,
        0.0
      ],
      "type": "VEC2"
    },
    {
      "bufferView": 0,
      "componentType": 5125,
      "count": 73728,
      "type": "SCALAR"
    },
    {
      "bufferView": 2,
      "byteOffset": 317784,
      "componentType": 5126,
      "count": 32223,
      "max": [
        11.206244468688965,
        5.574254512786865,
        9.837982177734375
      ],
      "min": [
        -2.5634641647338867,
        -5.574253559112549,
        -23.829517364501953
      ],
      "type": "VEC3"
    },
    {
      "bufferView": 2,
      "byteOffset": 704460,
      "componentType": 5126,
      "count": 32223,
      "max": [
        1.0,
        1.0,
        1.0
      ],
      "min": [
        -1.0,
        -1.0,
        -1.0
      ],
      "type": "VEC3"
    },
    {
      "bufferView": 1,
      "byteOffset": 105928,
      "componentType": 5126,
      "count": 32223,
      "max": [
        1.0,
        1.0
      ],
      "min": [
        0.0,
        0.0
      ],
      "type": "VEC2"
    },
    {
      "bufferView": 1,
      "byteOffset": 363712,
      "componentType": 5126,
      "count": 32223,
      "max": [
        1.0,
        1.0
      ],
      "min": [
        0.0,
        0.0
      ],
      "type": "VEC2"
    },
    {
      "bufferView": 0,
      "byteOffset": 294912,
      "componentType": 5125,
      "count": 135123,
      "type": "SCALAR"
    },
    {
      "bufferView": 2,
      "byteOffset": 1091136,
      "componentType": 5126,
      "count": 3868,
      "max": [
        0.9090843200683594,
        1.0,
        0.06340213119983673
      ],
      "min": [
        -1.0,
        -1.0,
        -0.011559784412384033
      ],
      "type": "VEC3"
    },
    {
      "bufferView": 2,
      "byteOffset": 1137552,
      "componentType": 5126,
      "count": 3868,
      "max": [
        1.0,
        1.0,
        1.0
      ],
      "min": [
        -1.0,
        -1.0,
        -1.0
      ],
      "type": "VEC3"
    },
    {
      "bufferView": 1,
      "byteOffset": 621496,
      "componentType": 5126,
      "count": 3868,
      "max": [
        1.0,
        1.0
      ],
      "min": [
        0.0,
        0.0
      ],
      "type": "VEC2"
    },
    {
      "bufferView": 1,
      "byteOffset": 652440,
      "componentType": 5126,
      "count": 3868,
      "max": [
        1.0,
        1.0
      ],
      "min": [
        0.0,
        0.0
      ],
      "type": "VEC2"
    },
    {
      "bufferView": 0,
      "byteOffset": 835404,
      "componentType": 5125,
      "count": 11370,
      "type": "SCALAR"
    }
  ],
  "asset": {
    "extras": {
      "author": "Be-Ru (https://sketchfab.com/beru837)",
      "license": "CC-BY-4.0 (http://creativecommons.org/licenses/by/4.0/)",
      "source": "https://sketchfab.com/3d-models/bathroom-basinsinkwash-basin-dccc933548654cfb9725d697d9e0d10d",
      "title": "Bathroom Basin/Sink/Wash Basin"
    },
    "generator": "Sketchfab-12.66.0",
    "version": "2.0"
  },
  "bufferViews": [
    {
      "buffer": 0,
      "byteLength": 880884,
      "name": "floatBufferViews",
      "target": 34963
    },
    {
      "buffer": 0,
      "byteLength": 683384,
      "byteOffset": 880884,
      "byteStride": 8,
      "name": "floatBufferViews",
      "target": 34962
    },
    {
      "buffer": 0,
      "byteLength": 1183968,
      "byteOffset": 1564268,
      "byteStride": 12,
      "name": "floatBufferViews",
      "target": 34962
    }
  ],
  "buffers": [
    {
      "byteLength": 2748236,
      "uri": "scene.bin"
    }
  ],
  "extensionsUsed": [
    "KHR_materials_clearcoat"
  ],
  "images": [
    {
      "uri": "textures/Material.010_baseColor.png"
    },
    {
      "uri": "textures/Material.012_baseColor.png"
    },
    {
      "uri": "textures/Material.012_metallicRoughness.png"
    },
    {
      "uri": "textures/Material.004_baseColor.png"
    },
    {
      "uri": "textures/Material.004_metallicRoughness.png"
    },
    {
      "uri": "textures/Material.004_clearcoat.png"
    },
    {
      "uri": "textures/Material.004_clearcoat_roughness.png"
    }
  ],
  "materials": [
    {
      "doubleSided": true,
      "extensions": {
        "KHR_materials_clearcoat": {
          "clearcoatFactor": 1.0,
          "clearcoatRoughnessFactor": 0.04
        }
      },
      "name": "Material.010",
      "pbrMetallicRoughness": {
        "baseColorTexture": {
          "index": 0
        },
        "metallicFactor": 0.0
      }
    },
    {
      "doubleSided": true,
      "name": "Material.012",
      "pbrMetallicRoughness": {
        "baseColorTexture": {
          "index": 1
        },
        "metallicRoughnessTexture": {
          "index": 2
        }
      }
    },
    {
      "doubleSided": true,
      "extensions": {
        "KHR_materials_clearcoat": {
          "clearcoatFactor": 1.0,
          "clearcoatRoughnessFactor": 1.0,
          "clearcoatRoughnessTexture": {
            "index": 6
          },
          "clearcoatTexture": {
            "index": 5
          }
        }
      },
      "name": "Material.004",
      "pbrMetallicRoughness": {
        "baseColorTexture": {
          "index": 3
        },
        "metallicRoughnessTexture": {
          "index": 4
        }
      }
    }
  ],
  "meshes": [
    {
      "name": "Main Base _Material.010_0",
      "primitives": [
        {
          "attributes": {
            "NORMAL": 1,
            "POSITION": 0,
            "TEXCOORD_0": 2
          },
          "indices": 3,
          "material": 0,
          "mode": 4
        }
      ]
    },
    {
      "name": "Pipes_Material.012_0",
      "primitives": [
        {
          "attributes": {
            "NORMAL": 5,
            "POSITION": 4,
            "TEXCOORD_0": 6,
            "TEXCOORD_1": 7
          },
          "indices": 8,
          "material": 1,
          "mode": 4
        }
      ]
    },
    {
      "name": "main wall, Towel ad Mirror_Material.004_0",
      "primitives": [
        {
          "attributes": {
            "NORMAL": 10,
            "POSITION": 9,
            "TEXCOORD_0": 11,
            "TEXCOORD_1": 12
          },
          "indices": 13,
          "material": 2,
          "mode": 4
        }
      ]
    }
  ],
  "nodes": [
    {
      "children": [
        1
      ],
      "matrix": [
        1.0,
        0.0,
        0.0,
        0.0,
        0.0,
        2.220446049250313e-16,
        -1.0,
        0.0,
        0.0,
        1.0,
        2.220446049250313e-16,
        0.0,
        0.0,
        0.0,
        0.0,
        1.0
      ],
      "name": "Sketchfab_model"
    },
    {
      "children": [
        2
      ],
      "matrix": [
        0.009999999776482582,
        0.0,
        0.0,
        0.0,
        0.0,
        0.0,
        0.009999999776482582,
        0.0,
        0.0,
        -0.009999999776482582,
        0.0,
        0.0,
        0.0,
        0.0,
        0.0,
        1.0
      ],
      "name": "f635a8b6fc8a4909b8f89c0a3884cc40.fbx"
    },
    {
      "children": [
        3,
        5,
        7
      ],
      "name": "RootNode"
    },
    {
      "children": [
        4
      ],
      "matrix": [
        14.421576499938965,
        0.0,
        0.0,
        0.0,
        -0.0,
        -2.349573041271326e-06,
        -14.421576499938775,
        0.0,
        0.0,
        14.421576499938775,
        -2.349573041271326e-06,
        0.0,
        -59.52159118652344,
        80.75179290771484,
        0.021300753578543663,
        1.0
      ],
      "name": "Main Base "
    },
    {
      "mesh": 0,
      "name": "Main Base _Material.010_0"
    },
    {
      "children": [
        6
      ],
      "matrix": [
        2.111868381500244,
        0.0,
        0.0,
        0.0,
        -0.0,
        -3.440670315001472e-07,
        -2.111868381500216,
        0.0,
        0.0,
        2.111868381500216,
        -3.440670315001472e-07,
        0.0,
        -78.25228118896484,
        100.55149841308594,
        0.022137701511383057,
        1.0
      ],
      "name": "Pipes"
    },
    {
      "mesh": 1,
      "name": "Pipes_Material.012_0"
    },
    {
      "children": [
        8
      ],
      "matrix": [
        -4.289367883832983e-06,
        -98.12929534912084,
        5.848961094093174e-06,
        0.0,
        -1.598729174977854e-05,
        -5.848960396842595e-06,
        -98.12929534911962,
        0.0,
        98.1292953491197,
        -4.289368837105259e-06,
        -1.5987291488309572e-05,
        0.0,
        -82.88906860351563,
        98.62290954589844,
        0.04455410689115524,
        1.0
      ],
      "name": "main wall, Towel ad Mirror"
    },
    {
      "mesh": 2,
      "name": "main wall, Towel ad Mirror_Material.004_0"
    }
  ],
  "samplers": [
    {
      "magFilter": 9729,
      "minFilter": 9987,
      "wrapS": 10497,
      "wrapT": 10497
    }
  ],
  "scene": 0,
  "scenes": [
    {
      "name": "Sketchfab_Scene",
      "nodes": [
        0
      ]
    }
  ],
  "textures": [
    {
      "sampler": 0,
      "source": 0
    },
    {
      "sampler": 0,
      "source": 1
    },
    {
      "sampler": 0,
      "source": 2
    },
    {
      "sampler": 0,
      "source": 3
    },
    {
      "sampler": 0,
      "source": 4
    },
    {
      "sampler": 0,
      "source": 5
    },
    {
      "sampler": 0,
      "source": 6
    }
  ]
}
